<svg xmlns="http://www.w3.org/2000/svg" xmlns:xlink="http://www.w3.org/1999/xlink" width="1080" zoomAndPan="magnify" viewBox="0 0 810 1012.49997" height="1350" preserveAspectRatio="xMidYMid meet" version="1.2"><defs><clipPath id="a60f89f8cb"><path d="M 95.128906 196.128906 L 715 196.128906 L 715 816 L 95.128906 816 Z M 95.128906 196.128906 "/></clipPath></defs><g id="02f91f5281"><path style=" stroke:none;fill-rule:nonzero;fill:#8c52ff;fill-opacity:1;" d="M 404.996094 370.433594 L 714.863281 370.433594 L 714.863281 467.253906 L 404.996094 467.253906 C 383.644531 467.253906 366.253906 484.609375 366.253906 505.996094 C 366.253906 527.347656 383.609375 544.738281 404.996094 544.738281 L 579.300781 544.738281 C 654.050781 544.738281 714.863281 605.550781 714.863281 680.300781 C 714.863281 755.050781 654.050781 815.863281 579.300781 815.863281 L 443.738281 815.863281 L 443.738281 719.042969 L 579.300781 719.042969 C 600.652344 719.042969 618.042969 701.652344 618.042969 680.300781 C 618.042969 658.949219 600.652344 641.558594 579.300781 641.558594 L 404.996094 641.558594 C 330.246094 641.558594 269.433594 580.746094 269.433594 505.996094 C 269.433594 431.246094 330.246094 370.433594 404.996094 370.433594 Z M 404.996094 370.433594 "/><g clip-rule="nonzero" clip-path="url(#a60f89f8cb)"><path style=" stroke:none;fill-rule:nonzero;fill:#231f20;fill-opacity:1;" d="M 714.828125 196.128906 L 714.828125 292.949219 L 317.84375 292.949219 C 248.421875 292.949219 191.949219 349.421875 191.949219 418.84375 L 191.949219 593.113281 C 191.949219 662.535156 248.421875 719.007812 317.84375 719.007812 L 366.253906 719.007812 L 366.253906 815.828125 L 317.84375 815.828125 C 195.027344 815.828125 95.128906 715.933594 95.128906 593.113281 L 95.128906 418.84375 C 95.128906 296.027344 195.027344 196.128906 317.84375 196.128906 Z M 714.828125 196.128906 "/></g></g></svg>